<svg id="12" viewBox="0 0 500 714" xmlns="http://www.w3.org/2000/svg" xmlns:xlink="http://www.w3.org/1999/xlink"><g transform="matrix(1,0,0,1,0,0)"><g id="12" opacity="1" style="mix-blend-mode:normal"><g><defs><clipPath id="12_clipPath" x="-50%" y="-50%" width="200%" height="200%"><path d="M0,714v-714h500v714z" fill="white" clip-rule="nonzero"></path></clipPath></defs><g clip-path="url(#12_clipPath)"><path id="12_fill_path" d="M0,714v-714h500v714z" fill-rule="nonzero" fill="rgb(255, 255, 255)" fill-opacity="0" style="mix-blend-mode:NORMAL"></path><g transform="matrix(1,0,0,1,98,581)"><g id="13" opacity="0" style="mix-blend-mode:normal"><g><g><path id="13_fill_path" d="M7.54545,124v-14.182l33.13635,-30.6816c2.8182,-2.7273 5.1818,-5.1819 7.0909,-7.3637c1.9394,-2.1818 3.4091,-4.3182 4.4091,-6.4091c1,-2.1212 1.5,-4.4091 1.5,-6.8636c0,-2.7273 -0.6212,-5.0758 -1.8636,-7.0455c-1.2424,-2 -2.9394,-3.5303 -5.0909,-4.5909c-2.1515,-1.0909 -4.5909,-1.6363 -7.3182,-1.6363c-2.8485,0 -5.3333,0.5757 -7.4546,1.7272c-2.1212,1.1516 -3.7575,2.8031 -4.909,4.9546c-1.1516,2.1515 -1.7273,4.7121 -1.7273,7.6818h-18.68184c0,-6.0909 1.37879,-11.3788 4.13634,-15.8636c2.7576,-4.4849 6.6212,-7.9546 11.5909,-10.4091c4.9697,-2.4546 10.697,-3.6818 17.1819,-3.6818c6.6666,0 12.4697,1.1818 17.409,3.5454c4.9697,2.3333 8.8334,5.5758 11.591,9.7273c2.7575,4.1515 4.1363,8.9091 4.1363,14.2727c0,3.5152 -0.6969,6.9849 -2.0909,10.4091c-1.3636,3.4243 -3.803,7.2273 -7.3182,11.4091c-3.5151,4.1515 -8.4697,9.1364 -14.8636,14.9545l-13.5909,13.3185v0.636h39.0909v16.091zM124.67,126.045c-7.818,-0.03 -14.545,-1.954 -20.181,-5.772c-5.6064,-3.818 -9.9246,-9.349 -12.9549,-16.591c-3,-7.2426 -4.4849,-15.9547 -4.4546,-26.1365c0,-10.1516 1.5,-18.8031 4.5,-25.9546c3.0303,-7.1515 7.3485,-12.5909 12.9545,-16.3182c5.636,-3.7575 12.349,-5.6363 20.136,-5.6363c7.788,0 14.485,1.8788 20.091,5.6363c5.637,3.7576 9.97,9.2121 13,16.3637c3.031,7.1212 4.531,15.7575 4.5,25.9091c0,10.2121 -1.515,18.9393 -4.545,26.1815c-3,7.243 -7.303,12.773 -12.909,16.591c-5.606,3.818 -12.318,5.727 -20.137,5.727zM124.67,109.727c5.334,0 9.591,-2.682 12.773,-8.045c3.182,-5.3638 4.758,-13.4093 4.727,-24.1365c0,-7.0607 -0.727,-12.9394 -2.181,-17.6364c-1.425,-4.697 -3.455,-8.2273 -6.091,-10.5909c-2.606,-2.3637 -5.682,-3.5455 -9.228,-3.5455c-5.303,0 -9.545,2.6515 -12.727,7.9546c-3.182,5.303 -4.788,13.2424 -4.818,23.8182c0,7.1515 0.712,13.1212 2.136,17.909c1.455,4.7575 3.5,8.3335 6.137,10.7275c2.636,2.363 5.727,3.545 9.272,3.545zM216.795,30.9091v93.0909h-19.681v-74.4091h-0.546l-21.318,13.3636v-17.4545l23.045,-14.5909zM274.648,125.273c-4.788,-0.031 -9.409,-0.834 -13.864,-2.409c-4.424,-1.576 -8.394,-4.137 -11.909,-7.682c-3.515,-3.546 -6.303,-8.243 -8.364,-14.091c-2.03,-5.8486 -3.045,-13.0304 -3.045,-21.5455c0.03,-7.8182 0.924,-14.8031 2.682,-20.9546c1.788,-6.1818 4.333,-11.4242 7.636,-15.7273c3.333,-4.303 7.318,-7.5757 11.955,-9.8182c4.636,-2.2727 9.833,-3.409 15.591,-3.409c6.212,0 11.697,1.2121 16.454,3.6363c4.758,2.394 8.576,5.6515 11.455,9.7728c2.909,4.1212 4.666,8.7424 5.272,13.8636h-19.409c-0.757,-3.2424 -2.348,-5.7879 -4.772,-7.6364c-2.425,-1.8485 -5.425,-2.7727 -9,-2.7727c-6.061,0 -10.667,2.6364 -13.819,7.9091c-3.121,5.2727 -4.712,12.4394 -4.772,21.5h0.636c1.394,-2.7576 3.273,-5.1061 5.636,-7.0455c2.394,-1.9697 5.106,-3.4697 8.137,-4.5c3.06,-1.0606 6.288,-1.5909 9.682,-1.5909c5.515,0 10.424,1.3031 14.727,3.9091c4.303,2.5758 7.697,6.1212 10.182,10.6364c2.484,4.5151 3.727,9.6818 3.727,15.5c0,6.303 -1.47,11.9088 -4.409,16.8178c-2.909,4.909 -6.985,8.758 -12.227,11.546c-5.213,2.757 -11.273,4.121 -18.182,4.091zM274.557,109.818c3.03,0 5.742,-0.727 8.136,-2.182c2.394,-1.454 4.273,-3.424 5.637,-5.909c1.363,-2.4846 2.045,-5.2725 2.045,-8.3634c0,-3.0909 -0.682,-5.8636 -2.045,-8.3181c-1.334,-2.4546 -3.182,-4.4091 -5.546,-5.8637c-2.364,-1.4545 -5.061,-2.1818 -8.091,-2.1818c-2.273,0 -4.379,0.4242 -6.318,1.2727c-1.909,0.8485 -3.591,2.0303 -5.045,3.5455c-1.425,1.5151 -2.546,3.2727 -3.364,5.2727c-0.818,1.9697 -1.227,4.0758 -1.227,6.3182c0,3 0.681,5.7424 2.045,8.2269c1.394,2.485 3.273,4.47 5.636,5.955c2.394,1.485 5.107,2.227 8.137,2.227z" fill-rule="nonzero" fill="rgb(255, 199, 0)" fill-opacity="1" style="mix-blend-mode:NORMAL"></path></g></g></g></g><g transform="matrix(1,0,0,1,99,486)"><g id="14" opacity="0.1413" style="mix-blend-mode:normal"><g><g><path id="14_fill_path" d="M7.54545,124v-14.182l33.13635,-30.6816c2.8182,-2.7273 5.1818,-5.1819 7.0909,-7.3637c1.9394,-2.1818 3.4091,-4.3182 4.4091,-6.4091c1,-2.1212 1.5,-4.4091 1.5,-6.8636c0,-2.7273 -0.6212,-5.0758 -1.8636,-7.0455c-1.2424,-2 -2.9394,-3.5303 -5.0909,-4.5909c-2.1515,-1.0909 -4.5909,-1.6363 -7.3182,-1.6363c-2.8485,0 -5.3333,0.5757 -7.4546,1.7272c-2.1212,1.1516 -3.7575,2.8031 -4.909,4.9546c-1.1516,2.1515 -1.7273,4.7121 -1.7273,7.6818h-18.68184c0,-6.0909 1.37879,-11.3788 4.13634,-15.8636c2.7576,-4.4849 6.6212,-7.9546 11.5909,-10.4091c4.9697,-2.4546 10.697,-3.6818 17.1819,-3.6818c6.6666,0 12.4697,1.1818 17.409,3.5454c4.9697,2.3333 8.8334,5.5758 11.591,9.7273c2.7575,4.1515 4.1363,8.9091 4.1363,14.2727c0,3.5152 -0.6969,6.9849 -2.0909,10.4091c-1.3636,3.4243 -3.803,7.2273 -7.3182,11.4091c-3.5151,4.1515 -8.4697,9.1364 -14.8636,14.9545l-13.5909,13.3185v0.636h39.0909v16.091zM124.67,126.045c-7.818,-0.03 -14.545,-1.954 -20.181,-5.772c-5.6064,-3.818 -9.9246,-9.349 -12.9549,-16.591c-3,-7.2426 -4.4849,-15.9547 -4.4546,-26.1365c0,-10.1516 1.5,-18.8031 4.5,-25.9546c3.0303,-7.1515 7.3485,-12.5909 12.9545,-16.3182c5.636,-3.7575 12.349,-5.6363 20.136,-5.6363c7.788,0 14.485,1.8788 20.091,5.6363c5.637,3.7576 9.97,9.2121 13,16.3637c3.031,7.1212 4.531,15.7575 4.5,25.9091c0,10.2121 -1.515,18.9393 -4.545,26.1815c-3,7.243 -7.303,12.773 -12.909,16.591c-5.606,3.818 -12.318,5.727 -20.137,5.727zM124.67,109.727c5.334,0 9.591,-2.682 12.773,-8.045c3.182,-5.3638 4.758,-13.4093 4.727,-24.1365c0,-7.0607 -0.727,-12.9394 -2.181,-17.6364c-1.425,-4.697 -3.455,-8.2273 -6.091,-10.5909c-2.606,-2.3637 -5.682,-3.5455 -9.228,-3.5455c-5.303,0 -9.545,2.6515 -12.727,7.9546c-3.182,5.303 -4.788,13.2424 -4.818,23.8182c0,7.1515 0.712,13.1212 2.136,17.909c1.455,4.7575 3.5,8.3335 6.137,10.7275c2.636,2.363 5.727,3.545 9.272,3.545zM216.795,30.9091v93.0909h-19.681v-74.4091h-0.546l-21.318,13.3636v-17.4545l23.045,-14.5909zM242.602,124l38.591,-76.3636v-0.6364h-44.954v-16.0909h65.318v16.3182l-38.637,76.7727z" fill-rule="nonzero" fill="rgb(0, 255, 10)" fill-opacity="0.5" style="mix-blend-mode:NORMAL"></path></g></g></g></g><g transform="matrix(1,0,0,1,99,389)"><g id="15" opacity="0.1413" style="mix-blend-mode:normal"><g><g><path id="15_fill_path" d="M7.54545,124v-14.182l33.13635,-30.6816c2.8182,-2.7273 5.1818,-5.1819 7.0909,-7.3637c1.9394,-2.1818 3.4091,-4.3182 4.4091,-6.4091c1,-2.1212 1.5,-4.4091 1.5,-6.8636c0,-2.7273 -0.6212,-5.0758 -1.8636,-7.0455c-1.2424,-2 -2.9394,-3.5303 -5.0909,-4.5909c-2.1515,-1.0909 -4.5909,-1.6363 -7.3182,-1.6363c-2.8485,0 -5.3333,0.5757 -7.4546,1.7272c-2.1212,1.1516 -3.7575,2.8031 -4.909,4.9546c-1.1516,2.1515 -1.7273,4.7121 -1.7273,7.6818h-18.68184c0,-6.0909 1.37879,-11.3788 4.13634,-15.8636c2.7576,-4.4849 6.6212,-7.9546 11.5909,-10.4091c4.9697,-2.4546 10.697,-3.6818 17.1819,-3.6818c6.6666,0 12.4697,1.1818 17.409,3.5454c4.9697,2.3333 8.8334,5.5758 11.591,9.7273c2.7575,4.1515 4.1363,8.9091 4.1363,14.2727c0,3.5152 -0.6969,6.9849 -2.0909,10.4091c-1.3636,3.4243 -3.803,7.2273 -7.3182,11.4091c-3.5151,4.1515 -8.4697,9.1364 -14.8636,14.9545l-13.5909,13.3185v0.636h39.0909v16.091zM124.67,126.045c-7.818,-0.03 -14.545,-1.954 -20.181,-5.772c-5.6064,-3.818 -9.9246,-9.349 -12.9549,-16.591c-3,-7.2426 -4.4849,-15.9547 -4.4546,-26.1365c0,-10.1516 1.5,-18.8031 4.5,-25.9546c3.0303,-7.1515 7.3485,-12.5909 12.9545,-16.3182c5.636,-3.7575 12.349,-5.6363 20.136,-5.6363c7.788,0 14.485,1.8788 20.091,5.6363c5.637,3.7576 9.97,9.2121 13,16.3637c3.031,7.1212 4.531,15.7575 4.5,25.9091c0,10.2121 -1.515,18.9393 -4.545,26.1815c-3,7.243 -7.303,12.773 -12.909,16.591c-5.606,3.818 -12.318,5.727 -20.137,5.727zM124.67,109.727c5.334,0 9.591,-2.682 12.773,-8.045c3.182,-5.3638 4.758,-13.4093 4.727,-24.1365c0,-7.0607 -0.727,-12.9394 -2.181,-17.6364c-1.425,-4.697 -3.455,-8.2273 -6.091,-10.5909c-2.606,-2.3637 -5.682,-3.5455 -9.228,-3.5455c-5.303,0 -9.545,2.6515 -12.727,7.9546c-3.182,5.303 -4.788,13.2424 -4.818,23.8182c0,7.1515 0.712,13.1212 2.136,17.909c1.455,4.7575 3.5,8.3335 6.137,10.7275c2.636,2.363 5.727,3.545 9.272,3.545zM216.795,30.9091v93.0909h-19.681v-74.4091h-0.546l-21.318,13.3636v-17.4545l23.045,-14.5909zM273.648,125.273c-7,0 -13.228,-1.137 -18.682,-3.409c-5.424,-2.303 -9.682,-5.44 -12.773,-9.409c-3.091,-3.97 -4.636,-8.47 -4.636,-13.5005c0,-3.8787 0.879,-7.4393 2.636,-10.6818c1.788,-3.2727 4.212,-5.9848 7.273,-8.1363c3.061,-2.1819 6.485,-3.5758 10.273,-4.1819v-0.6363c-4.97,-1 -9,-3.4091 -12.091,-7.2273c-3.091,-3.8485 -4.637,-8.3182 -4.637,-13.4091c0,-4.8182 1.409,-9.106 4.228,-12.8636c2.818,-3.7879 6.681,-6.7576 11.591,-8.9091c4.939,-2.1818 10.545,-3.2727 16.818,-3.2727c6.272,0 11.863,1.0909 16.772,3.2727c4.94,2.1818 8.819,5.1667 11.637,8.9545c2.818,3.7576 4.242,8.0303 4.273,12.8182c-0.031,5.1212 -1.607,9.5909 -4.728,13.4091c-3.121,3.8182 -7.121,6.2273 -12,7.2273v0.6363c3.728,0.6061 7.106,2 10.137,4.1819c3.06,2.1515 5.484,4.8636 7.272,8.1363c1.819,3.2425 2.743,6.8031 2.773,10.6818c-0.03,5.0305 -1.591,9.5305 -4.682,13.5005c-3.091,3.969 -7.363,7.106 -12.818,9.409c-5.424,2.272 -11.636,3.409 -18.636,3.409zM273.648,110.818c3.121,0 5.848,-0.56 8.182,-1.682c2.333,-1.151 4.151,-2.727 5.454,-4.727c1.333,-2.03 2,-4.364 2,-6.9999c0,-2.697 -0.682,-5.0758 -2.045,-7.1364c-1.364,-2.0909 -3.212,-3.7272 -5.546,-4.9091c-2.333,-1.2121 -5.015,-1.8181 -8.045,-1.8181c-3,0 -5.682,0.606 -8.046,1.8181c-2.363,1.1819 -4.227,2.8182 -5.591,4.9091c-1.333,2.0606 -2,4.4394 -2,7.1364c0,2.6359 0.652,4.9699 1.955,6.9999c1.303,2 3.136,3.576 5.5,4.727c2.364,1.122 5.091,1.682 8.182,1.682zM273.648,69.2273c2.606,0 4.924,-0.5303 6.954,-1.5909c2.031,-1.0606 3.621,-2.5303 4.773,-4.4091c1.152,-1.8788 1.727,-4.0455 1.727,-6.5c0,-2.4243 -0.575,-4.5455 -1.727,-6.3637c-1.152,-1.8485 -2.727,-3.2878 -4.727,-4.3181c-2,-1.0607 -4.334,-1.591 -7,-1.591c-2.637,0 -4.97,0.5303 -7,1.591c-2.031,1.0303 -3.621,2.4696 -4.773,4.3181c-1.121,1.8182 -1.682,3.9394 -1.682,6.3637c0,2.4545 0.576,4.6212 1.727,6.5c1.152,1.8788 2.743,3.3485 4.773,4.4091c2.03,1.0606 4.349,1.5909 6.955,1.5909z" fill-rule="nonzero" fill="rgb(0, 224, 255)" fill-opacity="0.45" style="mix-blend-mode:NORMAL"></path></g></g></g></g><g transform="matrix(1,0,0,1,99,295)"><g id="16" opacity="0.1413" style="mix-blend-mode:normal"><g><g><path id="16_fill_path" d="M7.54545,124v-14.182l33.13635,-30.6816c2.8182,-2.7273 5.1818,-5.1819 7.0909,-7.3637c1.9394,-2.1818 3.4091,-4.3182 4.4091,-6.4091c1,-2.1212 1.5,-4.4091 1.5,-6.8636c0,-2.7273 -0.6212,-5.0758 -1.8636,-7.0455c-1.2424,-2 -2.9394,-3.5303 -5.0909,-4.5909c-2.1515,-1.0909 -4.5909,-1.6363 -7.3182,-1.6363c-2.8485,0 -5.3333,0.5757 -7.4546,1.7272c-2.1212,1.1516 -3.7575,2.8031 -4.909,4.9546c-1.1516,2.1515 -1.7273,4.7121 -1.7273,7.6818h-18.68184c0,-6.0909 1.37879,-11.3788 4.13634,-15.8636c2.7576,-4.4849 6.6212,-7.9546 11.5909,-10.4091c4.9697,-2.4546 10.697,-3.6818 17.1819,-3.6818c6.6666,0 12.4697,1.1818 17.409,3.5454c4.9697,2.3333 8.8334,5.5758 11.591,9.7273c2.7575,4.1515 4.1363,8.9091 4.1363,14.2727c0,3.5152 -0.6969,6.9849 -2.0909,10.4091c-1.3636,3.4243 -3.803,7.2273 -7.3182,11.4091c-3.5151,4.1515 -8.4697,9.1364 -14.8636,14.9545l-13.5909,13.3185v0.636h39.0909v16.091zM124.67,126.045c-7.818,-0.03 -14.545,-1.954 -20.181,-5.772c-5.6064,-3.818 -9.9246,-9.349 -12.9549,-16.591c-3,-7.2426 -4.4849,-15.9547 -4.4546,-26.1365c0,-10.1516 1.5,-18.8031 4.5,-25.9546c3.0303,-7.1515 7.3485,-12.5909 12.9545,-16.3182c5.636,-3.7575 12.349,-5.6363 20.136,-5.6363c7.788,0 14.485,1.8788 20.091,5.6363c5.637,3.7576 9.97,9.2121 13,16.3637c3.031,7.1212 4.531,15.7575 4.5,25.9091c0,10.2121 -1.515,18.9393 -4.545,26.1815c-3,7.243 -7.303,12.773 -12.909,16.591c-5.606,3.818 -12.318,5.727 -20.137,5.727zM124.67,109.727c5.334,0 9.591,-2.682 12.773,-8.045c3.182,-5.3638 4.758,-13.4093 4.727,-24.1365c0,-7.0607 -0.727,-12.9394 -2.181,-17.6364c-1.425,-4.697 -3.455,-8.2273 -6.091,-10.5909c-2.606,-2.3637 -5.682,-3.5455 -9.228,-3.5455c-5.303,0 -9.545,2.6515 -12.727,7.9546c-3.182,5.303 -4.788,13.2424 -4.818,23.8182c0,7.1515 0.712,13.1212 2.136,17.909c1.455,4.7575 3.5,8.3335 6.137,10.7275c2.636,2.363 5.727,3.545 9.272,3.545zM216.795,30.9091v93.0909h-19.681v-74.4091h-0.546l-21.318,13.3636v-17.4545l23.045,-14.5909zM272.602,29.6364c4.788,0 9.394,0.803 13.818,2.409c4.455,1.6061 8.425,4.1667 11.91,7.6819c3.515,3.5151 6.287,8.1818 8.318,14c2.06,5.7878 3.106,12.8939 3.136,21.3182c0,7.909 -0.894,14.9697 -2.682,21.1818c-1.757,6.1817 -4.288,11.4397 -7.591,15.7727c-3.303,4.333 -7.288,7.636 -11.954,9.909c-4.667,2.243 -9.879,3.364 -15.637,3.364c-6.212,0 -11.697,-1.197 -16.454,-3.591c-4.758,-2.424 -8.591,-5.712 -11.5,-9.864c-2.879,-4.182 -4.621,-8.879 -5.227,-14.0907h19.409c0.757,3.3937 2.348,6.0307 4.772,7.9087c2.425,1.849 5.425,2.773 9,2.773c6.061,0 10.667,-2.636 13.819,-7.909c3.151,-5.303 4.742,-12.5606 4.772,-21.7727h-0.636c-1.394,2.7272 -3.273,5.0757 -5.636,7.0454c-2.364,1.9394 -5.076,3.4394 -8.137,4.5c-3.03,1.0606 -6.257,1.5909 -9.682,1.5909c-5.484,0 -10.378,-1.2878 -14.681,-3.8636c-4.303,-2.5758 -7.697,-6.1212 -10.182,-10.6364c-2.485,-4.5151 -3.727,-9.6666 -3.727,-15.4545c-0.031,-6.2424 1.409,-11.803 4.318,-16.6818c2.909,-4.8788 6.969,-8.697 12.182,-11.4546c5.242,-2.7879 11.333,-4.1666 18.272,-4.1363zM272.739,45.0909c-3.061,0 -5.788,0.7273 -8.182,2.1818c-2.364,1.4546 -4.243,3.4091 -5.637,5.8637c-1.363,2.4545 -2.03,5.1969 -2,8.2272c0,3.0606 0.667,5.8182 2,8.2728c1.364,2.4242 3.213,4.3636 5.546,5.8181c2.364,1.4243 5.061,2.1364 8.091,2.1364c2.273,0 4.379,-0.4242 6.318,-1.2727c1.939,-0.8485 3.621,-2.0152 5.045,-3.5c1.455,-1.5152 2.591,-3.2576 3.41,-5.2273c0.818,-1.9697 1.227,-4.0606 1.227,-6.2727c-0.03,-2.9394 -0.727,-5.6364 -2.091,-8.0909c-1.364,-2.4546 -3.243,-4.4243 -5.636,-5.9091c-2.394,-1.4849 -5.091,-2.2273 -8.091,-2.2273z" fill-rule="nonzero" fill="rgb(36, 0, 255)" fill-opacity="0.4" style="mix-blend-mode:NORMAL"></path></g></g></g></g><g transform="matrix(1,0,0,1,103,97)"><g id="18" opacity="0.1413" style="mix-blend-mode:normal"><g><g><path id="18_fill_path" d="M7.54545,124v-14.182l33.13635,-30.6816c2.8182,-2.7273 5.1818,-5.1819 7.0909,-7.3637c1.9394,-2.1818 3.4091,-4.3182 4.4091,-6.4091c1,-2.1212 1.5,-4.4091 1.5,-6.8636c0,-2.7273 -0.6212,-5.0758 -1.8636,-7.0455c-1.2424,-2 -2.9394,-3.5303 -5.0909,-4.5909c-2.1515,-1.0909 -4.5909,-1.6363 -7.3182,-1.6363c-2.8485,0 -5.3333,0.5757 -7.4546,1.7272c-2.1212,1.1516 -3.7575,2.8031 -4.909,4.9546c-1.1516,2.1515 -1.7273,4.7121 -1.7273,7.6818h-18.68184c0,-6.0909 1.37879,-11.3788 4.13634,-15.8636c2.7576,-4.4849 6.6212,-7.9546 11.5909,-10.4091c4.9697,-2.4546 10.697,-3.6818 17.1819,-3.6818c6.6666,0 12.4697,1.1818 17.409,3.5454c4.9697,2.3333 8.8334,5.5758 11.591,9.7273c2.7575,4.1515 4.1363,8.9091 4.1363,14.2727c0,3.5152 -0.6969,6.9849 -2.0909,10.4091c-1.3636,3.4243 -3.803,7.2273 -7.3182,11.4091c-3.5151,4.1515 -8.4697,9.1364 -14.8636,14.9545l-13.5909,13.3185v0.636h39.0909v16.091zM124.67,126.045c-7.818,-0.03 -14.545,-1.954 -20.181,-5.772c-5.6064,-3.818 -9.9246,-9.349 -12.9549,-16.591c-3,-7.2426 -4.4849,-15.9547 -4.4546,-26.1365c0,-10.1516 1.5,-18.8031 4.5,-25.9546c3.0303,-7.1515 7.3485,-12.5909 12.9545,-16.3182c5.636,-3.7575 12.349,-5.6363 20.136,-5.6363c7.788,0 14.485,1.8788 20.091,5.6363c5.637,3.7576 9.97,9.2121 13,16.3637c3.031,7.1212 4.531,15.7575 4.5,25.9091c0,10.2121 -1.515,18.9393 -4.545,26.1815c-3,7.243 -7.303,12.773 -12.909,16.591c-5.606,3.818 -12.318,5.727 -20.137,5.727zM124.67,109.727c5.334,0 9.591,-2.682 12.773,-8.045c3.182,-5.3638 4.758,-13.4093 4.727,-24.1365c0,-7.0607 -0.727,-12.9394 -2.181,-17.6364c-1.425,-4.697 -3.455,-8.2273 -6.091,-10.5909c-2.606,-2.3637 -5.682,-3.5455 -9.228,-3.5455c-5.303,0 -9.545,2.6515 -12.727,7.9546c-3.182,5.303 -4.788,13.2424 -4.818,23.8182c0,7.1515 0.712,13.1212 2.136,17.909c1.455,4.7575 3.5,8.3335 6.137,10.7275c2.636,2.363 5.727,3.545 9.272,3.545zM176.295,124v-14.182l33.137,-30.6816c2.818,-2.7273 5.182,-5.1819 7.091,-7.3637c1.939,-2.1818 3.409,-4.3182 4.409,-6.4091c1,-2.1212 1.5,-4.4091 1.5,-6.8636c0,-2.7273 -0.621,-5.0758 -1.864,-7.0455c-1.242,-2 -2.939,-3.5303 -5.091,-4.5909c-2.151,-1.0909 -4.591,-1.6363 -7.318,-1.6363c-2.848,0 -5.333,0.5757 -7.454,1.7272c-2.122,1.1516 -3.758,2.8031 -4.91,4.9546c-1.151,2.1515 -1.727,4.7121 -1.727,7.6818h-18.682c0,-6.0909 1.379,-11.3788 4.137,-15.8636c2.757,-4.4849 6.621,-7.9546 11.591,-10.4091c4.969,-2.4546 10.697,-3.6818 17.181,-3.6818c6.667,0 12.47,1.1818 17.41,3.5454c4.969,2.3333 8.833,5.5758 11.59,9.7273c2.758,4.1515 4.137,8.9091 4.137,14.2727c0,3.5152 -0.697,6.9849 -2.091,10.4091c-1.364,3.4243 -3.803,7.2273 -7.318,11.4091c-3.515,4.1515 -8.47,9.1364 -14.864,14.9545l-13.591,13.3185v0.636h39.091v16.091zM297.42,30.9091v93.0909h-19.681v-74.4091h-0.546l-21.318,13.3636v-17.4545l23.045,-14.5909z" fill-rule="nonzero" fill="rgb(189, 255, 0)" fill-opacity="0.3" style="mix-blend-mode:NORMAL"></path></g></g></g></g><g transform="matrix(1,0,0,1,98,197)"><g id="17" opacity="0.1413" style="mix-blend-mode:normal"><g><g><path id="17_fill_path" d="M7.54545,124v-14.182l33.13635,-30.6816c2.8182,-2.7273 5.1818,-5.1819 7.0909,-7.3637c1.9394,-2.1818 3.4091,-4.3182 4.4091,-6.4091c1,-2.1212 1.5,-4.4091 1.5,-6.8636c0,-2.7273 -0.6212,-5.0758 -1.8636,-7.0455c-1.2424,-2 -2.9394,-3.5303 -5.0909,-4.5909c-2.1515,-1.0909 -4.5909,-1.6363 -7.3182,-1.6363c-2.8485,0 -5.3333,0.5757 -7.4546,1.7272c-2.1212,1.1516 -3.7575,2.8031 -4.909,4.9546c-1.1516,2.1515 -1.7273,4.7121 -1.7273,7.6818h-18.68184c0,-6.0909 1.37879,-11.3788 4.13634,-15.8636c2.7576,-4.4849 6.6212,-7.9546 11.5909,-10.4091c4.9697,-2.4546 10.697,-3.6818 17.1819,-3.6818c6.6666,0 12.4697,1.1818 17.409,3.5454c4.9697,2.3333 8.8334,5.5758 11.591,9.7273c2.7575,4.1515 4.1363,8.9091 4.1363,14.2727c0,3.5152 -0.6969,6.9849 -2.0909,10.4091c-1.3636,3.4243 -3.803,7.2273 -7.3182,11.4091c-3.5151,4.1515 -8.4697,9.1364 -14.8636,14.9545l-13.5909,13.3185v0.636h39.0909v16.091zM124.67,126.045c-7.818,-0.03 -14.545,-1.954 -20.181,-5.772c-5.6064,-3.818 -9.9246,-9.349 -12.9549,-16.591c-3,-7.2426 -4.4849,-15.9547 -4.4546,-26.1365c0,-10.1516 1.5,-18.8031 4.5,-25.9546c3.0303,-7.1515 7.3485,-12.5909 12.9545,-16.3182c5.636,-3.7575 12.349,-5.6363 20.136,-5.6363c7.788,0 14.485,1.8788 20.091,5.6363c5.637,3.7576 9.97,9.2121 13,16.3637c3.031,7.1212 4.531,15.7575 4.5,25.9091c0,10.2121 -1.515,18.9393 -4.545,26.1815c-3,7.243 -7.303,12.773 -12.909,16.591c-5.606,3.818 -12.318,5.727 -20.137,5.727zM124.67,109.727c5.334,0 9.591,-2.682 12.773,-8.045c3.182,-5.3638 4.758,-13.4093 4.727,-24.1365c0,-7.0607 -0.727,-12.9394 -2.181,-17.6364c-1.425,-4.697 -3.455,-8.2273 -6.091,-10.5909c-2.606,-2.3637 -5.682,-3.5455 -9.228,-3.5455c-5.303,0 -9.545,2.6515 -12.727,7.9546c-3.182,5.303 -4.788,13.2424 -4.818,23.8182c0,7.1515 0.712,13.1212 2.136,17.909c1.455,4.7575 3.5,8.3335 6.137,10.7275c2.636,2.363 5.727,3.545 9.272,3.545zM176.295,124v-14.182l33.137,-30.6816c2.818,-2.7273 5.182,-5.1819 7.091,-7.3637c1.939,-2.1818 3.409,-4.3182 4.409,-6.4091c1,-2.1212 1.5,-4.4091 1.5,-6.8636c0,-2.7273 -0.621,-5.0758 -1.864,-7.0455c-1.242,-2 -2.939,-3.5303 -5.091,-4.5909c-2.151,-1.0909 -4.591,-1.6363 -7.318,-1.6363c-2.848,0 -5.333,0.5757 -7.454,1.7272c-2.122,1.1516 -3.758,2.8031 -4.91,4.9546c-1.151,2.1515 -1.727,4.7121 -1.727,7.6818h-18.682c0,-6.0909 1.379,-11.3788 4.137,-15.8636c2.757,-4.4849 6.621,-7.9546 11.591,-10.4091c4.969,-2.4546 10.697,-3.6818 17.181,-3.6818c6.667,0 12.47,1.1818 17.41,3.5454c4.969,2.3333 8.833,5.5758 11.59,9.7273c2.758,4.1515 4.137,8.9091 4.137,14.2727c0,3.5152 -0.697,6.9849 -2.091,10.4091c-1.364,3.4243 -3.803,7.2273 -7.318,11.4091c-3.515,4.1515 -8.47,9.1364 -14.864,14.9545l-13.591,13.3185v0.636h39.091v16.091zM293.42,126.045c-7.818,-0.03 -14.545,-1.954 -20.181,-5.772c-5.606,-3.818 -9.925,-9.349 -12.955,-16.591c-3,-7.2426 -4.485,-15.9547 -4.454,-26.1365c0,-10.1516 1.5,-18.8031 4.5,-25.9546c3.03,-7.1515 7.348,-12.5909 12.954,-16.3182c5.636,-3.7575 12.349,-5.6363 20.136,-5.6363c7.788,0 14.485,1.8788 20.091,5.6363c5.637,3.7576 9.97,9.2121 13,16.3637c3.031,7.1212 4.531,15.7575 4.5,25.9091c0,10.2121 -1.515,18.9393 -4.545,26.1815c-3,7.243 -7.303,12.773 -12.909,16.591c-5.606,3.818 -12.318,5.727 -20.137,5.727zM293.42,109.727c5.334,0 9.591,-2.682 12.773,-8.045c3.182,-5.3638 4.758,-13.4093 4.727,-24.1365c0,-7.0607 -0.727,-12.9394 -2.181,-17.6364c-1.425,-4.697 -3.455,-8.2273 -6.091,-10.5909c-2.606,-2.3637 -5.682,-3.5455 -9.228,-3.5455c-5.303,0 -9.545,2.6515 -12.727,7.9546c-3.182,5.303 -4.788,13.2424 -4.818,23.8182c0,7.1515 0.712,13.1212 2.136,17.909c1.455,4.7575 3.5,8.3335 6.137,10.7275c2.636,2.363 5.727,3.545 9.272,3.545z" fill-rule="nonzero" fill="rgb(255, 0, 0)" fill-opacity="0.35" style="mix-blend-mode:NORMAL"></path></g></g></g></g><g transform="matrix(1,0,0,1,99,-6)"><g id="19" opacity="0.1413" style="mix-blend-mode:normal"><g><g><path id="19_fill_path" d="M7.54545,124v-14.182l33.13635,-30.6816c2.8182,-2.7273 5.1818,-5.1819 7.0909,-7.3637c1.9394,-2.1818 3.4091,-4.3182 4.4091,-6.4091c1,-2.1212 1.5,-4.4091 1.5,-6.8636c0,-2.7273 -0.6212,-5.0758 -1.8636,-7.0455c-1.2424,-2 -2.9394,-3.5303 -5.0909,-4.5909c-2.1515,-1.0909 -4.5909,-1.6363 -7.3182,-1.6363c-2.8485,0 -5.3333,0.5757 -7.4546,1.7272c-2.1212,1.1516 -3.7575,2.8031 -4.909,4.9546c-1.1516,2.1515 -1.7273,4.7121 -1.7273,7.6818h-18.68184c0,-6.0909 1.37879,-11.3788 4.13634,-15.8636c2.7576,-4.4849 6.6212,-7.9546 11.5909,-10.4091c4.9697,-2.4546 10.697,-3.6818 17.1819,-3.6818c6.6666,0 12.4697,1.1818 17.409,3.5454c4.9697,2.3333 8.8334,5.5758 11.591,9.7273c2.7575,4.1515 4.1363,8.9091 4.1363,14.2727c0,3.5152 -0.6969,6.9849 -2.0909,10.4091c-1.3636,3.4243 -3.803,7.2273 -7.3182,11.4091c-3.5151,4.1515 -8.4697,9.1364 -14.8636,14.9545l-13.5909,13.3185v0.636h39.0909v16.091zM124.67,126.045c-7.818,-0.03 -14.545,-1.954 -20.181,-5.772c-5.6064,-3.818 -9.9246,-9.349 -12.9549,-16.591c-3,-7.2426 -4.4849,-15.9547 -4.4546,-26.1365c0,-10.1516 1.5,-18.8031 4.5,-25.9546c3.0303,-7.1515 7.3485,-12.5909 12.9545,-16.3182c5.636,-3.7575 12.349,-5.6363 20.136,-5.6363c7.788,0 14.485,1.8788 20.091,5.6363c5.637,3.7576 9.97,9.2121 13,16.3637c3.031,7.1212 4.531,15.7575 4.5,25.9091c0,10.2121 -1.515,18.9393 -4.545,26.1815c-3,7.243 -7.303,12.773 -12.909,16.591c-5.606,3.818 -12.318,5.727 -20.137,5.727zM124.67,109.727c5.334,0 9.591,-2.682 12.773,-8.045c3.182,-5.3638 4.758,-13.4093 4.727,-24.1365c0,-7.0607 -0.727,-12.9394 -2.181,-17.6364c-1.425,-4.697 -3.455,-8.2273 -6.091,-10.5909c-2.606,-2.3637 -5.682,-3.5455 -9.228,-3.5455c-5.303,0 -9.545,2.6515 -12.727,7.9546c-3.182,5.303 -4.788,13.2424 -4.818,23.8182c0,7.1515 0.712,13.1212 2.136,17.909c1.455,4.7575 3.5,8.3335 6.137,10.7275c2.636,2.363 5.727,3.545 9.272,3.545zM176.295,124v-14.182l33.137,-30.6816c2.818,-2.7273 5.182,-5.1819 7.091,-7.3637c1.939,-2.1818 3.409,-4.3182 4.409,-6.4091c1,-2.1212 1.5,-4.4091 1.5,-6.8636c0,-2.7273 -0.621,-5.0758 -1.864,-7.0455c-1.242,-2 -2.939,-3.5303 -5.091,-4.5909c-2.151,-1.0909 -4.591,-1.6363 -7.318,-1.6363c-2.848,0 -5.333,0.5757 -7.454,1.7272c-2.122,1.1516 -3.758,2.8031 -4.91,4.9546c-1.151,2.1515 -1.727,4.7121 -1.727,7.6818h-18.682c0,-6.0909 1.379,-11.3788 4.137,-15.8636c2.757,-4.4849 6.621,-7.9546 11.591,-10.4091c4.969,-2.4546 10.697,-3.6818 17.181,-3.6818c6.667,0 12.47,1.1818 17.41,3.5454c4.969,2.3333 8.833,5.5758 11.59,9.7273c2.758,4.1515 4.137,8.9091 4.137,14.2727c0,3.5152 -0.697,6.9849 -2.091,10.4091c-1.364,3.4243 -3.803,7.2273 -7.318,11.4091c-3.515,4.1515 -8.47,9.1364 -14.864,14.9545l-13.591,13.3185v0.636h39.091v16.091zM256.92,124v-14.182l33.137,-30.6816c2.818,-2.7273 5.182,-5.1819 7.091,-7.3637c1.939,-2.1818 3.409,-4.3182 4.409,-6.4091c1,-2.1212 1.5,-4.4091 1.5,-6.8636c0,-2.7273 -0.621,-5.0758 -1.864,-7.0455c-1.242,-2 -2.939,-3.5303 -5.091,-4.5909c-2.151,-1.0909 -4.591,-1.6363 -7.318,-1.6363c-2.848,0 -5.333,0.5757 -7.454,1.7272c-2.122,1.1516 -3.758,2.8031 -4.91,4.9546c-1.151,2.1515 -1.727,4.7121 -1.727,7.6818h-18.682c0,-6.0909 1.379,-11.3788 4.137,-15.8636c2.757,-4.4849 6.621,-7.9546 11.591,-10.4091c4.969,-2.4546 10.697,-3.6818 17.181,-3.6818c6.667,0 12.47,1.1818 17.41,3.5454c4.969,2.3333 8.833,5.5758 11.59,9.7273c2.758,4.1515 4.137,8.9091 4.137,14.2727c0,3.5152 -0.697,6.9849 -2.091,10.4091c-1.364,3.4243 -3.803,7.2273 -7.318,11.4091c-3.515,4.1515 -8.47,9.1364 -14.864,14.9545l-13.591,13.3185v0.636h39.091v16.091z" fill-rule="nonzero" fill="rgb(255, 122, 0)" fill-opacity="0.25" style="mix-blend-mode:NORMAL"></path></g></g></g></g><g transform="matrix(1,0,0,1,99,-105)"><g id="110" opacity="0.1413" style="mix-blend-mode:normal"><g><g><path id="110_fill_path" d="M7.54545,124v-14.182l33.13635,-30.6816c2.8182,-2.7273 5.1818,-5.1819 7.0909,-7.3637c1.9394,-2.1818 3.4091,-4.3182 4.4091,-6.4091c1,-2.1212 1.5,-4.4091 1.5,-6.8636c0,-2.7273 -0.6212,-5.0758 -1.8636,-7.0455c-1.2424,-2 -2.9394,-3.5303 -5.0909,-4.5909c-2.1515,-1.0909 -4.5909,-1.6363 -7.3182,-1.6363c-2.8485,0 -5.3333,0.5757 -7.4546,1.7272c-2.1212,1.1516 -3.7575,2.8031 -4.909,4.9546c-1.1516,2.1515 -1.7273,4.7121 -1.7273,7.6818h-18.68184c0,-6.0909 1.37879,-11.3788 4.13634,-15.8636c2.7576,-4.4849 6.6212,-7.9546 11.5909,-10.4091c4.9697,-2.4546 10.697,-3.6818 17.1819,-3.6818c6.6666,0 12.4697,1.1818 17.409,3.5454c4.9697,2.3333 8.8334,5.5758 11.591,9.7273c2.7575,4.1515 4.1363,8.9091 4.1363,14.2727c0,3.5152 -0.6969,6.9849 -2.0909,10.4091c-1.3636,3.4243 -3.803,7.2273 -7.3182,11.4091c-3.5151,4.1515 -8.4697,9.1364 -14.8636,14.9545l-13.5909,13.3185v0.636h39.0909v16.091zM124.67,126.045c-7.818,-0.03 -14.545,-1.954 -20.181,-5.772c-5.6064,-3.818 -9.9246,-9.349 -12.9549,-16.591c-3,-7.2426 -4.4849,-15.9547 -4.4546,-26.1365c0,-10.1516 1.5,-18.8031 4.5,-25.9546c3.0303,-7.1515 7.3485,-12.5909 12.9545,-16.3182c5.636,-3.7575 12.349,-5.6363 20.136,-5.6363c7.788,0 14.485,1.8788 20.091,5.6363c5.637,3.7576 9.97,9.2121 13,16.3637c3.031,7.1212 4.531,15.7575 4.5,25.9091c0,10.2121 -1.515,18.9393 -4.545,26.1815c-3,7.243 -7.303,12.773 -12.909,16.591c-5.606,3.818 -12.318,5.727 -20.137,5.727zM124.67,109.727c5.334,0 9.591,-2.682 12.773,-8.045c3.182,-5.3638 4.758,-13.4093 4.727,-24.1365c0,-7.0607 -0.727,-12.9394 -2.181,-17.6364c-1.425,-4.697 -3.455,-8.2273 -6.091,-10.5909c-2.606,-2.3637 -5.682,-3.5455 -9.228,-3.5455c-5.303,0 -9.545,2.6515 -12.727,7.9546c-3.182,5.303 -4.788,13.2424 -4.818,23.8182c0,7.1515 0.712,13.1212 2.136,17.909c1.455,4.7575 3.5,8.3335 6.137,10.7275c2.636,2.363 5.727,3.545 9.272,3.545zM176.295,124v-14.182l33.137,-30.6816c2.818,-2.7273 5.182,-5.1819 7.091,-7.3637c1.939,-2.1818 3.409,-4.3182 4.409,-6.4091c1,-2.1212 1.5,-4.4091 1.5,-6.8636c0,-2.7273 -0.621,-5.0758 -1.864,-7.0455c-1.242,-2 -2.939,-3.5303 -5.091,-4.5909c-2.151,-1.0909 -4.591,-1.6363 -7.318,-1.6363c-2.848,0 -5.333,0.5757 -7.454,1.7272c-2.122,1.1516 -3.758,2.8031 -4.91,4.9546c-1.151,2.1515 -1.727,4.7121 -1.727,7.6818h-18.682c0,-6.0909 1.379,-11.3788 4.137,-15.8636c2.757,-4.4849 6.621,-7.9546 11.591,-10.4091c4.969,-2.4546 10.697,-3.6818 17.181,-3.6818c6.667,0 12.47,1.1818 17.41,3.5454c4.969,2.3333 8.833,5.5758 11.59,9.7273c2.758,4.1515 4.137,8.9091 4.137,14.2727c0,3.5152 -0.697,6.9849 -2.091,10.4091c-1.364,3.4243 -3.803,7.2273 -7.318,11.4091c-3.515,4.1515 -8.47,9.1364 -14.864,14.9545l-13.591,13.3185v0.636h39.091v16.091zM291.33,125.273c-6.788,0 -12.834,-1.167 -18.137,-3.5c-5.273,-2.364 -9.439,-5.606 -12.5,-9.728c-3.03,-4.151 -4.591,-8.939 -4.682,-14.3632h19.819c0.121,2.2727 0.863,4.2732 2.227,6.0002c1.394,1.697 3.242,3.015 5.545,3.954c2.303,0.94 4.894,1.409 7.773,1.409c3,0 5.652,-0.53 7.955,-1.59c2.303,-1.061 4.106,-2.531 5.409,-4.41c1.303,-1.878 1.954,-4.045 1.954,-6.4995c0,-2.4849 -0.697,-4.6819 -2.091,-6.591c-1.363,-1.9393 -3.333,-3.4545 -5.909,-4.5454c-2.545,-1.0909 -5.576,-1.6364 -9.091,-1.6364h-8.682v-14.4545h8.682c2.97,0 5.591,-0.5152 7.864,-1.5455c2.303,-1.0303 4.091,-2.4545 5.364,-4.2727c1.272,-1.8485 1.909,-4 1.909,-6.4545c0,-2.3334 -0.561,-4.3788 -1.682,-6.1364c-1.091,-1.7879 -2.637,-3.1818 -4.637,-4.1818c-1.969,-1 -4.272,-1.5 -6.909,-1.5c-2.666,0 -5.106,0.4848 -7.318,1.4545c-2.212,0.9394 -3.985,2.2879 -5.318,4.0455c-1.333,1.7575 -2.045,3.8182 -2.136,6.1818h-18.864c0.091,-5.3636 1.621,-10.0909 4.591,-14.1818c2.97,-4.0909 6.97,-7.2879 12,-9.5909c5.061,-2.3334 10.773,-3.5 17.136,-3.5c6.425,0 12.046,1.1666 16.864,3.5c4.818,2.3333 8.561,5.4848 11.227,9.4545c2.697,3.9394 4.03,8.3636 4,13.2727c0.03,5.2122 -1.591,9.5606 -4.863,13.0455c-3.243,3.4848 -7.47,5.697 -12.682,6.6364v0.7272c6.848,0.8788 12.06,3.2576 15.636,7.1364c3.606,3.8485 5.394,8.6667 5.364,14.4545c0.03,5.3034 -1.5,10.0154 -4.591,14.1364c-3.061,4.121 -7.288,7.364 -12.682,9.727c-5.394,2.364 -11.576,3.546 -18.545,3.546z" fill-rule="nonzero" fill="rgb(255, 255, 255)" fill-opacity="0.2" style="mix-blend-mode:NORMAL"></path></g></g></g></g></g></g></g></g><animateTransform href="#13" attributeName="transform" type="translate" values="0 0;0 0;-1 108;-1 108" dur="15s" repeatCount="indefinite" calcMode="spline" keyTimes="0;0.07;0.11;1" keySplines="0.5 0.35 0.15 1;0.5 0.35 0.15 1;0.5 0.35 0.15 1" additive="sum" fill="freeze"></animateTransform><animate href="#13" attributeName="opacity" values="0;1;1" dur="15s" repeatCount="indefinite" calcMode="spline" keyTimes="0;0.02;1" keySplines="0.5 0.35 0.15 1;0.5 0.35 0.15 1" additive="sum" fill="freeze"></animate><animate href="#14_fill_path" attributeName="fill" values="rgb(0, 255, 10;rgb(0, 255, 10;rgb(0, 255, 10;rgb(0, 255, 10" dur="15s" repeatCount="indefinite" keyTimes="0;0.07;0.11;1" fill="freeze"></animate><animate href="#14_fill_path" attributeName="fill-opacity" values="0.5;0.5;1;1" dur="15s" repeatCount="indefinite" keyTimes="0;0.07;0.11;1" fill="freeze"></animate><animateTransform href="#14" attributeName="transform" type="translate" values="0 0;0 0;-2 53;-3 77;-5 203;-5 203" dur="15s" repeatCount="indefinite" calcMode="spline" keyTimes="0;0.06;0.11;0.14;0.2;1" keySplines="0.5 0.35 0.15 1;0.5 0.35 0.15 1;0.5 0.35 0.15 1;0.5 0.35 0.15 1;0.5 0.35 0.15 1" additive="sum" fill="freeze"></animateTransform><animate href="#14" attributeName="opacity" values="0;0;1;1" dur="15s" repeatCount="indefinite" calcMode="spline" keyTimes="0;0;0.02;1" keySplines="0.5 0.35 0.15 1;0.5 0.35 0.15 1;0.5 0.35 0.15 1" additive="sum" fill="freeze"></animate><animate href="#15_fill_path" attributeName="fill" values="rgb(0, 224, 255;rgb(0, 224, 255;rgb(0, 224, 255;rgb(0, 224, 255" dur="15s" repeatCount="indefinite" keyTimes="0;0.14;0.2;1" fill="freeze"></animate><animate href="#15_fill_path" attributeName="fill-opacity" values="0.45;0.45;1;1" dur="15s" repeatCount="indefinite" keyTimes="0;0.14;0.2;1" fill="freeze"></animate><animateTransform href="#15" attributeName="transform" type="translate" values="0 0;0 0;1 105;-6 105;-3 309;-3 309" dur="15s" repeatCount="indefinite" calcMode="spline" keyTimes="0;0.14;0.2;0.26;0.31;1" keySplines="0.5 0.35 0.15 1;0.5 0.35 0.15 1;0.5 0.35 0.15 1;0.5 0.35 0.15 1;0.5 0.35 0.15 1" additive="sum" fill="freeze"></animateTransform><animate href="#15" attributeName="opacity" values="0;0;1;1" dur="15s" repeatCount="indefinite" calcMode="spline" keyTimes="0;0;0.02;1" keySplines="0.5 0.35 0.15 1;0.5 0.35 0.15 1;0.5 0.35 0.15 1" additive="sum" fill="freeze"></animate><animate href="#16_fill_path" attributeName="fill" values="rgb(36, 0, 255;rgb(36, 0, 255;rgb(36, 0, 255;rgb(36, 0, 255" dur="15s" repeatCount="indefinite" keyTimes="0;0.25;0.31;1" fill="freeze"></animate><animate href="#16_fill_path" attributeName="fill-opacity" values="0.4;0.4;1;1" dur="15s" repeatCount="indefinite" keyTimes="0;0.25;0.31;1" fill="freeze"></animate><animateTransform href="#16" attributeName="transform" type="translate" values="0 0;0 0;-2 190;-2 190;-7 393;-7 393" dur="15s" repeatCount="indefinite" calcMode="spline" keyTimes="0;0.25;0.31;0.36;0.41;1" keySplines="0.5 0.35 0.15 1;0.5 0.35 0.15 1;0.5 0.35 0.15 1;0.5 0.35 0.15 1;0.5 0.35 0.15 1" additive="sum" fill="freeze"></animateTransform><animate href="#16" attributeName="opacity" values="0;0;1;1" dur="15s" repeatCount="indefinite" calcMode="spline" keyTimes="0;0;0.02;1" keySplines="0.5 0.35 0.15 1;0.5 0.35 0.15 1;0.5 0.35 0.15 1" additive="sum" fill="freeze"></animate><animate href="#18_fill_path" attributeName="fill" values="rgb(189, 255, 0;rgb(189, 255, 0;rgb(189, 255, 0;rgb(189, 255, 0" dur="15s" repeatCount="indefinite" keyTimes="0;0.47;0.52;1" fill="freeze"></animate><animate href="#18_fill_path" attributeName="fill-opacity" values="0.3;0.3;1;1" dur="15s" repeatCount="indefinite" keyTimes="0;0.47;0.52;1" fill="freeze"></animate><animateTransform href="#18" attributeName="transform" type="translate" values="0 0;0 0;0 379;0 379;-5 594;-5 594" dur="15s" repeatCount="indefinite" calcMode="spline" keyTimes="0;0.47;0.52;0.59;0.64;1" keySplines="0.5 0.35 0.15 1;0.5 0.35 0.15 1;0.5 0.35 0.15 1;0.5 0.35 0.15 1;0.5 0.35 0.15 1" additive="sum" fill="freeze"></animateTransform><animate href="#18" attributeName="opacity" values="0;0;1;1" dur="15s" repeatCount="indefinite" calcMode="spline" keyTimes="0;0;0.02;1" keySplines="0.5 0.35 0.15 1;0.5 0.35 0.15 1;0.5 0.35 0.15 1" additive="sum" fill="freeze"></animate><animate href="#17_fill_path" attributeName="fill" values="rgb(255, 0, 0;rgb(255, 0, 0;rgb(255, 0, 0;rgb(255, 0, 0" dur="15s" repeatCount="indefinite" keyTimes="0;0.35;0.41;1" fill="freeze"></animate><animate href="#17_fill_path" attributeName="fill-opacity" values="0.35;0.35;1;1" dur="15s" repeatCount="indefinite" keyTimes="0;0.35;0.41;1" fill="freeze"></animate><animateTransform href="#17" attributeName="transform" type="translate" values="0 0;0 0;-4 266;-4 266;-5 491;-5 491" dur="15s" repeatCount="indefinite" calcMode="spline" keyTimes="0;0.36;0.41;0.47;0.52;1" keySplines="0.5 0.35 0.15 1;0.5 0.35 0.15 1;0.5 0.35 0.15 1;0.5 0.35 0.15 1;0.5 0.35 0.15 1" additive="sum" fill="freeze"></animateTransform><animate href="#17" attributeName="opacity" values="0;0;1;1" dur="15s" repeatCount="indefinite" calcMode="spline" keyTimes="0;0;0.02;1" keySplines="0.5 0.35 0.15 1;0.5 0.35 0.15 1;0.5 0.35 0.15 1" additive="sum" fill="freeze"></animate><animate href="#19_fill_path" attributeName="fill" values="rgb(255, 122, 0;rgb(255, 122, 0;rgb(255, 122, 0;rgb(255, 122, 0" dur="15s" repeatCount="indefinite" keyTimes="0;0.59;0.65;1" fill="freeze"></animate><animate href="#19_fill_path" attributeName="fill-opacity" values="0.25;0.25;1;1" dur="15s" repeatCount="indefinite" keyTimes="0;0.59;0.65;1" fill="freeze"></animate><animateTransform href="#19" attributeName="transform" type="translate" values="0 0;0 0;-4 474;-4 474;-4 694;-4 694" dur="15s" repeatCount="indefinite" calcMode="spline" keyTimes="0;0.59;0.65;0.7;0.75;1" keySplines="0.5 0.35 0.15 1;0.5 0.35 0.15 1;0.5 0.35 0.15 1;0.5 0.35 0.15 1;0.5 0.35 0.15 1" additive="sum" fill="freeze"></animateTransform><animate href="#19" attributeName="opacity" values="0;0;1;1" dur="15s" repeatCount="indefinite" calcMode="spline" keyTimes="0;0;0.02;1" keySplines="0.5 0.35 0.15 1;0.5 0.35 0.15 1;0.5 0.35 0.15 1" additive="sum" fill="freeze"></animate><animate href="#110_fill_path" attributeName="fill" values="rgb(255, 255, 255;rgb(255, 255, 255;rgb(255, 255, 255;rgb(255, 255, 255" dur="15s" repeatCount="indefinite" keyTimes="0;0.7;0.81;1" fill="freeze"></animate><animate href="#110_fill_path" attributeName="fill-opacity" values="0.2;0.2;1;1" dur="15s" repeatCount="indefinite" keyTimes="0;0.7;0.81;1" fill="freeze"></animate><animateTransform href="#110" attributeName="transform" type="translate" values="0 0;0 0;-2 383;-2 383" dur="15s" repeatCount="indefinite" calcMode="spline" keyTimes="0;0.7;0.81;1" keySplines="0.5 0.35 0.15 1;0.5 0.35 0.15 1;0.5 0.35 0.15 1" additive="sum" fill="freeze"></animateTransform><animate href="#110" attributeName="opacity" values="0;0;1;1;0" dur="15s" repeatCount="indefinite" calcMode="spline" keyTimes="0;0;0.02;0.94;1" keySplines="0.5 0.35 0.15 1;0.5 0.35 0.15 1;0.5 0.35 0.15 1;0.5 0.35 0.15 1" additive="sum" fill="freeze"></animate></svg>